PathFileType	4	(X/Y/Z)	C:\Users\86182\Documents\cortex\Trimmed_M1_H14.trc
DataRate	CameraRate	NumFrames	NumMarkers	Units	OrigDataRate	OrigDataStartFrame	OrigNumFrames
100.00	100.00	       70	2	mm	100.00	361	       901
Frame#	Time	gripper			box			
		X1	Y1	Z1	X2	Y2	Z2	

361	3.600	226.07568	206.55287	285.51657	230.27658	206.05984	135.51074	
362	3.610	226.25003	206.49689	285.64246	230.23036	206.03250	135.57785	
363	3.620	226.27838	206.51791	285.64291	230.22177	206.02785	135.58667	
364	3.630	226.38438	206.54680	285.63495	230.38687	205.99901	135.68169	
365	3.640	226.40800	206.55922	285.68491	230.37032	205.96165	135.74684	
366	3.650	226.42134	206.56717	285.75787	230.28267	205.97891	135.81969	
367	3.660	226.45819	206.57529	285.77768	230.26015	205.98334	135.83832	
368	3.670	226.50488	206.57254	285.78152	230.24536	205.99513	135.86818	
369	3.680	226.56578	206.56612	285.78183	230.22636	206.00551	135.89706	
370	3.690	226.56578	206.56612	285.78183	230.27898	206.02573	135.91379	
371	3.700	226.64029	206.55560	285.79282	230.28644	206.02858	135.91615	
372	3.710	226.64517	206.55774	285.78223	230.26387	206.03485	135.95096	
373	3.720	226.64517	206.55774	285.78223	230.27353	206.03218	135.93610	
374	3.730	226.63675	206.55406	285.80069	230.28644	206.02858	135.91615	
375	3.740	226.64517	206.55774	285.78223	230.24902	206.01422	135.90428	
376	3.750	226.64517	206.55774	285.78223	230.28275	206.02718	135.91495	
377	3.760	226.64517	206.55774	285.78223	230.19965	205.99525	135.88863	
378	3.770	226.60088	206.56242	285.78201	230.24155	206.01135	135.90186	
379	3.780	226.64517	206.55774	285.78223	230.25383	206.02037	135.91785	
380	3.790	226.64517	206.55774	285.78223	230.21948	206.01997	135.94279	
381	3.800	226.64517	206.55774	285.78223	230.27583	206.02661	135.91873	
382	3.810	226.58109	206.54701	285.75336	230.34872	205.96591	135.76482	
383	3.820	226.29317	206.50388	285.68713	230.37032	205.96165	135.74684	
384	3.830	226.27402	206.49367	285.63876	230.51514	205.84656	135.55824	
385	3.840	226.14787	206.43207	285.59818	230.23987	205.79346	135.57355	
386	3.850	226.11075	206.41264	285.51868	230.09605	205.75203	135.41040	
387	3.860	226.16847	206.39232	285.37561	230.48248	205.66051	135.04639	
388	3.870	225.89836	206.38377	285.40524	230.78734	205.67395	134.86589	
389	3.880	225.77303	206.39439	285.38959	230.79372	205.66882	134.84798	
390	3.890	225.71268	206.39444	285.35370	230.76889	205.66179	134.81952	
391	3.900	225.74599	206.39471	285.37515	230.76511	205.66071	134.81517	
392	3.910	225.82277	206.39388	285.41660	230.80333	205.67154	134.85909	
393	3.920	225.98538	206.37215	285.39218	230.17163	205.75008	135.16092	
394	3.930	226.20503	206.40245	285.37381	230.05829	205.75845	135.22263	
395	3.940	226.13608	206.39861	285.45630	230.10699	205.77028	135.29533	
396	3.950	226.17931	206.41179	285.41440	230.08917	205.76198	135.30209	
397	3.960	226.21970	206.40952	285.37384	230.18976	205.74812	135.24669	
398	3.970	226.21970	206.40952	285.37384	230.27293	205.70296	135.13966	
399	3.980	226.10809	206.35576	285.37375	230.73177	205.64447	134.91722	
400	3.990	226.03477	206.36555	285.38477	230.78029	205.65932	134.88036	
401	4.000	225.96063	206.37546	285.39590	230.80333	205.67154	134.85909	
402	4.010	225.96063	206.37546	285.39590	230.72278	205.68369	134.89340	
403	4.020	225.86063	206.38881	285.41092	230.75511	205.67880	134.87962	
404	4.030	225.82277	206.39388	285.41660	230.73106	205.68306	134.89537	
405	4.040	225.99776	206.37050	285.39029	230.57957	205.68350	134.97270	
406	4.050	225.99776	206.37050	285.39029	230.03030	205.74359	135.24847	
407	4.060	226.15623	206.40897	285.38113	230.06293	205.76093	135.21834	
408	4.070	226.20755	206.41113	285.37564	230.03157	205.74190	135.26714	
409	4.080	226.10478	206.40681	285.38663	230.04430	205.75102	135.23553	
410	4.090	226.08002	206.41013	285.39035	230.14543	205.75731	135.17088	
411	4.100	225.89836	206.38377	285.40524	230.30678	205.74443	135.08304	
412	4.110	225.93576	206.37878	285.39963	230.62823	205.69818	134.93591	
413	4.120	225.82277	206.39388	285.41660	230.72278	205.68369	134.89340	
414	4.130	225.82277	206.39388	285.41660	230.36568	205.73802	135.05005	
415	4.140	225.82277	206.39388	285.41660	230.50031	205.71773	134.99266	
416	4.150	225.96063	206.37546	285.39590	230.25688	205.74904	135.10880	
417	4.160	226.05930	206.36227	285.38107	230.38643	205.73590	135.05003	
418	4.170	226.12001	206.36897	285.37558	230.30505	205.67476	135.13475	
419	4.180	226.19037	206.39539	285.37381	230.38513	205.66341	135.10703	
420	4.190	226.10809	206.35576	285.37375	230.28941	205.67798	135.14899	
421	4.200	226.20012	206.40009	285.37381	230.03966	205.74857	135.23984	
422	4.210	226.09044	206.38483	285.38293	230.21588	205.75632	135.13603	
423	4.220	226.03148	206.38675	285.39032	230.09976	205.78049	135.18428	
424	4.230	225.88576	206.38545	285.40714	230.23000	205.75999	135.12117	
425	4.240	225.82277	206.39388	285.41660	230.50031	205.71773	134.99266	
426	4.250	225.84813	206.39049	285.41278	230.54787	205.71043	134.97128	
427	4.260	225.84813	206.39049	285.41278	230.42686	205.71977	135.03416	
428	4.270	225.93576	206.37878	285.39963	230.26941	205.74477	135.11224	
429	4.280	226.01003	206.36885	285.38849	230.05365	205.75600	135.22691	
430	4.290	226.08380	206.35899	285.37738	230.23608	205.72099	135.14397	
